<?xml version="1.0" encoding="utf-8"?>
<!-- Generator: Adobe Illustrator 10.0, SVG Export Plug-In . SVG Version: 3.0.0 Build 77)  -->
<!DOCTYPE svg PUBLIC "-//W3C//DTD SVG 1.0//EN"    "http://www.w3.org/TR/2001/REC-SVG-20010904/DTD/svg10.dtd" [
	<!ENTITY ns_flows "http://ns.adobe.com/Flows/1.0/">
	<!ENTITY ns_extend "http://ns.adobe.com/Extensibility/1.0/">
	<!ENTITY ns_ai "http://ns.adobe.com/AdobeIllustrator/10.0/">
	<!ENTITY ns_graphs "http://ns.adobe.com/Graphs/1.0/">
	<!ENTITY ns_vars "http://ns.adobe.com/Variables/1.0/">
	<!ENTITY ns_imrep "http://ns.adobe.com/ImageReplacement/1.0/">
	<!ENTITY ns_sfw "http://ns.adobe.com/SaveForWeb/1.0/">
	<!ENTITY ns_custom "http://ns.adobe.com/GenericCustomNamespace/1.0/">
	<!ENTITY ns_adobe_xpath "http://ns.adobe.com/XPath/1.0/">
	<!ENTITY ns_svg "http://www.w3.org/2000/svg">
	<!ENTITY ns_xlink "http://www.w3.org/1999/xlink">
]>
<svg 
	 xmlns:x="&ns_extend;" xmlns:i="&ns_ai;" xmlns:graph="&ns_graphs;" i:viewOrigin="262 450" i:rulerOrigin="0 0" i:pageBounds="0 792 612 0"
	 xmlns="&ns_svg;" xmlns:xlink="&ns_xlink;" xmlns:a="http://ns.adobe.com/AdobeSVGViewerExtensions/3.0/"
	 width="87.041" height="108.445" viewBox="0 0 87.041 108.445" overflow="visible" enable-background="new 0 0 87.041 108.445"
	 xml:space="preserve">
	<metadata>
		<variableSets  xmlns="&ns_vars;">
			<variableSet  varSetName="binding1" locked="none">
				<variables></variables>
				<v:sampleDataSets  xmlns="&ns_custom;" xmlns:v="&ns_vars;"></v:sampleDataSets>
			</variableSet>
		</variableSets>
		<sfw  xmlns="&ns_sfw;">
			<slices></slices>
			<sliceSourceBounds  y="341.555" x="262" width="87.041" height="108.445" bottomLeftOrigin="true"></sliceSourceBounds>
		</sfw>
	</metadata>
	<g id="Layer_1" i:layer="yes" i:dimmedPercent="50" i:rgbTrio="#4F008000FFFF">
		<g>
			<path i:knockout="Off" fill="#A80030" d="m 76.79547,45.168445 c -0.554402,4.600121 -4.146166,10.521872 -5.056166,12.484872 -1.703367,1.930777 -4.045121,5.332919 -5.298026,3.604682 -4.198945,2.121559 -4.679279,3.999055 -9.994357,3.625131 -12.746099,-1.770746 -16.288895,-5.735129 -18.198939,-13.777306 -0.517,-6.557 1.835252,-10.924042 7.435865,-14.819869 5.848,-2.895 10.856284,-2.338811 16.099153,-0.479955 -2.301,-3.014 -6.881,-6.209 -12.309,-5.91 -5.317,0.084 -11.162709,2.49069 -12.822709,6.15869 -2.724,1.715 -3.564455,8.818535 -4.751455,9.714535 -2.057369,14.600781 7.644429,21.612344 11.994073,24.271722 9.072817,3.81865 13.220614,2.818239 23.682421,0.121639 2.419787,-2.480411 8.960827,-7.036768 8.960827,-7.036768 2.014,-3.248 -0.793902,-1.889157 2.388865,-5.667758 l 1.08269,1.887766 C 81.289666,56.38289 81.050324,54.965977 81.833,52.146 c 0.470457,-1.799409 0.57659,-2.557678 1.711,-3.731 0.107078,-0.227634 0.38242,-3.551889 1.262,-7.285 -0.659176,-4.943378 1.206433,-4.143849 1.575045,-4.481893 C 85.942795,32.804496 83.115509,26.666181 85.789,27.058 83.519,18.706 76.074,10.902 69.225,7.24 67.22775,6.0181021 65.603833,6.1524725 62.651,6.08 57.421,3.306 56.413,3.601 51.6,1.863 l 0.219,1.023 C 49.519926,2.4372488 48.328981,3.6022965 46.412,2.075 43.391148,2.2600566 43.780166,2.4456593 42.465,0.773 c -2.732,0.166 -5.352,0.295 -5.352,0.295 -8.391185,2.4577157 -15.166135,9.874344 -16.951,8.01 -2.035,2.443 -8.874,7.296 -9.419,10.46 l -0.544,0.127 c -1.059,1.793 -1.744,3.825 -2.584,5.67 -1.385,2.36 -2.03,0.908 -1.833,1.278 -2.724,5.523 -4.077,10.164 -5.246,13.97 0.833,1.245 0.02,7.495 0.335,12.497 -1.368,24.704 17.338,48.69 37.785,54.228 2.997,1.072 7.454,1.031 11.245,1.141 -3.494443,-2.10489 -2.871154,-2.51165 -7.228154,-4.03065 -2.248626,-2.02797 -3.575251,-1.21839 -5.801251,-3.15039 1.40386,-1.5313 -6.771219,-5.462308 -7.801264,-7.761966 -5.351531,0.174831 -4.40783,-7.066508 -5.736945,-4.980796 -3.39376,-6.840669 -5.237741,-5.075183 -6.836182,-11.300025 -2.200299,-3.935247 -5.25834,-8.270138 -4.3185,-9.928367 -2.150609,-2.450136 -2.3670871,-18.105219 -1.956087,-23.980219 0.285,-2.389 1.620009,-4.659588 3.212009,-8.647588 -2.822098,-2.49388 8.889811,-11.663677 10.196598,-12.319859 1.17443,-4.084324 5.411095,-4.516392 7.594446,-7.058026 7.638083,-1.626156 7.519254,-1.203246 11.706485,-1.281913 4.511,-2.207 11.265137,-0.398343 17.607137,2.531657 7.359,3.439 14.194662,10.183393 15.925708,19.889142 v 0 c -0.188,3.802 1.128534,5.164608 0.33047,8.738445" id="path14" />
		</g>
	</g>
</svg>
